<?xml version="1.0" encoding="UTF-8" standalone="no"?>
<!-- Created with Inkscape (http://www.inkscape.org/) -->

<svg
   xmlns:dc="http://purl.org/dc/elements/1.1/"
   xmlns:cc="http://creativecommons.org/ns#"
   xmlns:rdf="http://www.w3.org/1999/02/22-rdf-syntax-ns#"
   xmlns:svg="http://www.w3.org/2000/svg"
   xmlns="http://www.w3.org/2000/svg"
   xmlns:sodipodi="http://sodipodi.sourceforge.net/DTD/sodipodi-0.dtd"
   xmlns:inkscape="http://www.inkscape.org/namespaces/inkscape"
   width="112.88889mm"
   height="122.14733mm"
   viewBox="0 0 399.99997 432.8055"
   id="svg2"
   version="1.1"
   inkscape:version="0.91 r13725"
   sodipodi:docname="7 - attacks.svg">
  <defs
     id="defs4">
    <marker
       inkscape:stockid="Arrow2Lend"
       orient="auto"
       refY="0"
       refX="0"
       id="Arrow2Lend"
       style="overflow:visible"
       inkscape:isstock="true">
      <path
         id="path4234"
         style="fill:#000000;fill-opacity:1;fill-rule:evenodd;stroke:#000000;stroke-width:0.625;stroke-linejoin:round;stroke-opacity:1"
         d="M 8.7185878,4.0337352 -2.2072895,0.01601326 8.7185884,-4.0017078 c -1.7454984,2.3720609 -1.7354408,5.6174519 -6e-7,8.035443 z"
         transform="matrix(-1.1,0,0,-1.1,-1.1,0)"
         inkscape:connector-curvature="0" />
    </marker>
    <marker
       inkscape:stockid="Arrow2Lend"
       orient="auto"
       refY="0"
       refX="0"
       id="Arrow2Lend-8"
       style="overflow:visible"
       inkscape:isstock="true">
      <path
         inkscape:connector-curvature="0"
         id="path4234-6"
         style="fill:#000000;fill-opacity:1;fill-rule:evenodd;stroke:#000000;stroke-width:0.625;stroke-linejoin:round;stroke-opacity:1"
         d="M 8.7185878,4.0337352 -2.2072895,0.01601326 8.7185884,-4.0017078 c -1.7454984,2.3720609 -1.7354408,5.6174519 -6e-7,8.035443 z"
         transform="matrix(-1.1,0,0,-1.1,-1.1,0)" />
    </marker>
    <marker
       inkscape:stockid="Arrow2Lend"
       orient="auto"
       refY="0"
       refX="0"
       id="Arrow2Lend-9"
       style="overflow:visible"
       inkscape:isstock="true">
      <path
         inkscape:connector-curvature="0"
         id="path4234-4"
         style="fill:#000000;fill-opacity:1;fill-rule:evenodd;stroke:#000000;stroke-width:0.625;stroke-linejoin:round;stroke-opacity:1"
         d="M 8.7185878,4.0337352 -2.2072895,0.01601326 8.7185884,-4.0017078 c -1.7454984,2.3720609 -1.7354408,5.6174519 -6e-7,8.035443 z"
         transform="matrix(-1.1,0,0,-1.1,-1.1,0)" />
    </marker>
  </defs>
  <sodipodi:namedview
     id="base"
     pagecolor="#ffffff"
     bordercolor="#666666"
     borderopacity="1.0"
     inkscape:pageopacity="1"
     inkscape:pageshadow="2"
     inkscape:zoom="0.98994949"
     inkscape:cx="179.43807"
     inkscape:cy="226.76862"
     inkscape:document-units="px"
     inkscape:current-layer="layer1"
     showgrid="false"
     inkscape:window-width="1920"
     inkscape:window-height="1017"
     inkscape:window-x="-8"
     inkscape:window-y="-8"
     inkscape:window-maximized="1"
     fit-margin-top="0"
     fit-margin-left="0"
     fit-margin-right="0"
     fit-margin-bottom="0" />
  <metadata
     id="metadata7">
    <rdf:RDF>
      <cc:Work
         rdf:about="">
        <dc:format>image/svg+xml</dc:format>
        <dc:type
           rdf:resource="http://purl.org/dc/dcmitype/StillImage" />
        <dc:title></dc:title>
      </cc:Work>
    </rdf:RDF>
  </metadata>
  <g
     inkscape:label="Layer 1"
     inkscape:groupmode="layer"
     id="layer1"
     transform="translate(-147.07144,-302.48526)">
    <rect
       style="opacity:1;fill:none;fill-opacity:1;stroke:#000000;stroke-width:2.67430758;stroke-miterlimit:4;stroke-dasharray:none;stroke-opacity:1"
       id="rect4136"
       width="397.32568"
       height="397.32568"
       x="148.40858"
       y="336.62793"
       inkscape:export-xdpi="90"
       inkscape:export-ydpi="90" />
    <path
       style="opacity:1;fill:none;fill-opacity:1;stroke:#ff0000;stroke-width:2.67430758;stroke-miterlimit:4;stroke-dasharray:none;stroke-opacity:1"
       d="m 234.78481,418.21583 c 17.55869,-20.65494 44.63885,22.14969 65.06781,13.57341 22.44495,-9.4226 15.08417,-60.94291 39.42096,-61.47388 33.8452,-0.73841 45.33619,66.80897 58.49924,83.01943 L 264.50086,580.30333 c -4.9923,-11.47517 -67.47806,-36.83373 -73.12331,-56.9319 -3.78448,-13.47345 48.71527,-21.11226 46.64447,-33.55375 -3.92264,-23.56744 -17.68313,-54.60856 -3.23721,-71.60185 z"
       id="rect4138"
       inkscape:connector-curvature="0"
       sodipodi:nodetypes="saaccsss" />
    <path
       style="opacity:1;fill:none;fill-opacity:1;stroke:#0000ff;stroke-width:2.67430758;stroke-miterlimit:4;stroke-dasharray:none;stroke-opacity:1"
       d="m 413.56112,667.65307 c -45.52626,34.10668 -170.24356,15.2183 -147.94348,-85.06395 L 399.52633,454.66546 c 4.51403,10.37581 98.25394,12.68664 82.34473,44.77675 -12.22812,24.66506 -106.37471,31.80058 -96.49697,51.48941 26.74346,53.30641 60.2203,92.72324 28.18703,116.72145 z"
       id="rect4138-4"
       inkscape:connector-curvature="0"
       sodipodi:nodetypes="accssa" />
    <circle
       style="opacity:1;fill:#ff0000;fill-opacity:1;stroke:none;stroke-width:0.46447647;stroke-miterlimit:4;stroke-dasharray:none;stroke-opacity:1"
       id="path4156"
       cx="267.35504"
       cy="501.80832"
       r="6.6857686" />
    <circle
       style="opacity:1;fill:#ff0000;fill-opacity:1;stroke:none;stroke-width:0.46447647;stroke-miterlimit:4;stroke-dasharray:none;stroke-opacity:1"
       id="path4156-5"
       cx="303.2218"
       cy="475.84692"
       r="6.6857686" />
    <circle
       style="opacity:1;fill:#ff0000;fill-opacity:1;stroke:none;stroke-width:0.46447647;stroke-miterlimit:4;stroke-dasharray:none;stroke-opacity:1"
       id="path4156-1"
       cx="351.4938"
       cy="475.31168"
       r="6.6857686" />
    <circle
       style="opacity:1;fill:#0000ff;fill-opacity:1;stroke:none;stroke-width:0.46447647;stroke-miterlimit:4;stroke-dasharray:none;stroke-opacity:1"
       id="path4156-7"
       cx="326.34094"
       cy="663.0498"
       r="6.6857686" />
    <circle
       style="opacity:1;fill:#0000ff;fill-opacity:1;stroke:none;stroke-width:0.46447647;stroke-miterlimit:4;stroke-dasharray:none;stroke-opacity:1"
       id="path4156-51"
       cx="313.80911"
       cy="586.26025"
       r="6.6857686" />
    <circle
       style="opacity:1;fill:#0000ff;fill-opacity:1;stroke:none;stroke-width:0.46447647;stroke-miterlimit:4;stroke-dasharray:none;stroke-opacity:1"
       id="path4156-71"
       cx="399.57379"
       cy="496.55811"
       r="6.6857686" />
    <path
       style="fill:none;fill-rule:evenodd;stroke:#000000;stroke-width:2.67430758;stroke-linecap:butt;stroke-linejoin:miter;stroke-miterlimit:4;stroke-dasharray:8.02292247, 8.02292247;stroke-dashoffset:0;stroke-opacity:1"
       d="m 540.77555,733.01299 c -10.07328,-2.02786 -152.16063,-5.75735 -255.43568,-13.4975 -50.09817,-3.7547 -104.20957,28.06464 -104.52529,-11.2192 -0.45901,-57.11313 160.39471,41.68803 170.73167,-14.48374 5.12665,-27.85855 -68.11273,-16.8668 -76.5705,-36.85631 -8.25774,-19.51675 19.03385,-45.59059 12.93776,-62.24513 -7.95044,-21.72068 -18.64141,-52.57691 -2.70146,-69.33744 18.4113,-19.3591 63.05808,19.63842 80.14327,-0.90049 23.57394,-28.33931 -14.0237,-72.4216 -18.9102,-108.95883 -2.11821,-15.83821 -13.9529,-34.84071 -4.50244,-47.72576 17.79213,-24.25834 58.55452,-23.74191 88.24765,-18.91021 37.85362,6.15959 77.7873,26.61628 99.05347,58.5316 20.50211,30.76864 15.30827,109.85932 15.30827,109.85932"
       id="path4197"
       inkscape:connector-curvature="0"
       sodipodi:nodetypes="cssassaaaaaac" />
    <text
       xml:space="preserve"
       style="font-style:normal;font-weight:normal;font-size:35.65743256px;line-height:125%;font-family:sans-serif;letter-spacing:0px;word-spacing:0px;fill:#ff0000;fill-opacity:1;stroke:none;stroke-width:1px;stroke-linecap:butt;stroke-linejoin:miter;stroke-opacity:1"
       x="145.06918"
       y="332.17078"
       id="text4199"
       sodipodi:linespacing="125%"><tspan
         sodipodi:role="line"
         id="tspan4201"
         x="145.06918"
         y="332.17078">Cats</tspan></text>
    <text
       xml:space="preserve"
       style="font-style:normal;font-weight:normal;font-size:35.65743256px;line-height:125%;font-family:sans-serif;letter-spacing:0px;word-spacing:0px;fill:#0000ff;fill-opacity:1;stroke:none;stroke-width:1px;stroke-linecap:butt;stroke-linejoin:miter;stroke-opacity:1"
       x="458.3631"
       y="328.47968"
       id="text4203"
       sodipodi:linespacing="125%"><tspan
         sodipodi:role="line"
         id="tspan4205"
         x="458.3631"
         y="328.47968">Dogs</tspan></text>
    <path
       style="fill:none;fill-rule:evenodd;stroke:#000000;stroke-width:0.8914358px;stroke-linecap:butt;stroke-linejoin:miter;stroke-opacity:1;marker-end:url(#Arrow2Lend)"
       d="m 270.66264,506.63749 22.92263,31.83699"
       id="path4207"
       inkscape:connector-curvature="0"
       sodipodi:nodetypes="cc" />
    <path
       style="fill:none;fill-rule:evenodd;stroke:#000000;stroke-width:0.8914358px;stroke-linecap:butt;stroke-linejoin:miter;stroke-opacity:1;marker-end:url(#Arrow2Lend-8)"
       d="m 356.93469,474.30174 37.56764,5.09392"
       id="path4207-0"
       inkscape:connector-curvature="0"
       sodipodi:nodetypes="cc" />
    <path
       style="fill:none;fill-rule:evenodd;stroke:#000000;stroke-width:0.8914358px;stroke-linecap:butt;stroke-linejoin:miter;stroke-opacity:1;marker-end:url(#Arrow2Lend-9)"
       d="m 323.18747,667.87065 -27.37982,19.73894"
       id="path4207-7"
       inkscape:connector-curvature="0"
       sodipodi:nodetypes="cc" />
  </g>
</svg>
