<?xml version="1.0" encoding="UTF-8" standalone="no"?>
<!-- Generator: Adobe Illustrator 21.1.0, SVG Export Plug-In . SVG Version: 6.00 Build 0)  -->

<svg
   xmlns:dc="http://purl.org/dc/elements/1.1/"
   xmlns:cc="http://creativecommons.org/ns#"
   xmlns:rdf="http://www.w3.org/1999/02/22-rdf-syntax-ns#"
   xmlns:svg="http://www.w3.org/2000/svg"
   xmlns="http://www.w3.org/2000/svg"
   xmlns:sodipodi="http://sodipodi.sourceforge.net/DTD/sodipodi-0.dtd"
   xmlns:inkscape="http://www.inkscape.org/namespaces/inkscape"
   version="1.1"
   id="Layer_1"
   x="0px"
   y="0px"
   viewBox="0 0 442.83607 319.80283"
   xml:space="preserve"
   inkscape:version="0.91 r13725"
   sodipodi:docname="hero.svg"
   width="442.83606"
   height="319.80283"><metadata
     id="metadata3622"><rdf:RDF><cc:Work
         rdf:about=""><dc:format>image/svg+xml</dc:format><dc:type
           rdf:resource="http://purl.org/dc/dcmitype/StillImage" /><dc:title></dc:title></cc:Work></rdf:RDF></metadata><defs
     id="defs3620" /><sodipodi:namedview
     pagecolor="#ffffff"
     bordercolor="#666666"
     borderopacity="1"
     objecttolerance="10"
     gridtolerance="10"
     guidetolerance="10"
     inkscape:pageopacity="0"
     inkscape:pageshadow="2"
     inkscape:window-width="1920"
     inkscape:window-height="1005"
     id="namedview3618"
     showgrid="false"
     fit-margin-top="16.9"
     fit-margin-left="10"
     fit-margin-right="10"
     fit-margin-bottom="16.9"
     inkscape:zoom="1.2881641"
     inkscape:cx="342.61007"
     inkscape:cy="255.4585"
     inkscape:window-x="0"
     inkscape:window-y="27"
     inkscape:window-maximized="1"
     inkscape:current-layer="Layer_1" /><g
     id="g3508"
     transform="translate(-78.215277,-147.89718)"><path
       stroke-miterlimit="10"
       d="m 400.5,415.5 c -3.2,0.4 -6.2,0.9 -9.4,1.5 -0.9,0.2 -1.9,0.4 -2.7,0.9 -1,0.7 -1.6,1.9 -2,3 -0.8,2.2 -1.4,4.4 -1.6,6.8 -0.4,4.2 0.8,9.2 4.5,11.2 2.5,1.4 5.4,1.2 8.3,1 3,-0.2 6.2,-0.6 8.5,-2.6 1.3,-1.1 2.1,-2.7 2.6,-4.2 1.1,-3.4 0.5,-7.3 -1.5,-10.2 -2,-3 -5.2,-5 -8.8,-5.5 M 430,403.8 c -3.1,0.1 -6.4,0.4 -8.7,2.3 -1.9,1.6 -2.8,4 -3,6.4 -0.2,2.4 0.2,4.8 0.6,7.2 0.1,0.9 0.3,1.7 0.7,2.5 0.3,0.6 0.8,1 1.3,1.4 4.2,3.5 10.2,4.9 15.7,3.5 1.1,-0.3 2.2,-0.7 3.1,-1.4 2.6,-2.1 2.8,-5.9 2.1,-9.2 -0.7,-3.3 -2,-6.4 -4.1,-9 -2.1,-2.6 -5.1,-4.4 -8.5,-4.9 m -20.1,19.8 c 1.3,-1.2 2.7,-2.4 4.3,-2.9 1.7,-0.5 3.7,-0.3 4.8,1.1 m 22.4,-12.5 c 1,-3.6 2.4,-7.2 4.2,-10.5 1.5,-2.8 3.4,-5.4 5.9,-7.2 2.5,-1.8 6,-2.6 9,-1.4 1.3,0.5 2.5,1.6 2.8,3"
       id="path3510"
       inkscape:connector-curvature="0"
       style="fill:none;stroke:#000000;stroke-width:3;stroke-linecap:round;stroke-linejoin:round;stroke-miterlimit:10" /><path
       stroke-miterlimit="10"
       d="m 392.9,416.8 c 0.8,-1.8 1.6,-3.5 2.4,-5.3 0.9,-2 1.7,-3.8 2.9,-5.6 2.7,-4.3 6.6,-7.7 10.9,-10.3 1.2,-0.7 2.4,-1.4 3.6,-1.5 1.4,0 2.8,0.8 3.1,2.1"
       id="path3512"
       inkscape:connector-curvature="0"
       style="fill:none;stroke:#000000;stroke-width:3;stroke-linecap:round;stroke-linejoin:round;stroke-miterlimit:10" /></g><g
     id="g3514"
     transform="translate(-78.215277,-147.89718)"><path
       stroke-miterlimit="10"
       d="m 448.2,205.6 c -4.9,0.9 -9.9,1.8 -14.9,2.7 -1.7,0.3 -3.4,0.6 -4.8,1.6 -1.4,1 -2.4,2.9 -1.8,4.4 0.7,1.9 3,2.7 4.9,3.1 3.5,0.8 7.1,1.6 10.6,1.2 3.3,-0.3 6.4,-1.6 9.5,-2.9 1.5,-0.6 3.2,-1.4 3.9,-2.8 1.1,-1.9 0.2,-4.3 -1.5,-5.6 -1.7,-1.3 -4,-1.5 -6.1,-1.1"
       id="path3516"
       inkscape:connector-curvature="0"
       style="fill:none;stroke:#000000;stroke-width:3;stroke-linecap:round;stroke-linejoin:round;stroke-miterlimit:10" /><path
       stroke-miterlimit="10"
       d="m 425.9,214 c 1.5,8.5 2.9,17.1 4.3,25.5 0.1,0.8 0.3,1.6 0.6,2.3 0.4,0.9 1.2,1.6 1.9,2.3 3.7,3.2 8.8,4.7 13.7,4.3 4.9,-0.4 9.6,-2.9 12.7,-6.6"
       id="path3518"
       inkscape:connector-curvature="0"
       style="fill:none;stroke:#000000;stroke-width:3;stroke-linecap:round;stroke-linejoin:round;stroke-miterlimit:10" /><path
       stroke-miterlimit="10"
       d="m 456.2,210.5 c 1.3,8.6 2.6,17.1 3.8,25.7 0.3,2.2 0.5,4.8 -1.2,6.3"
       id="path3520"
       inkscape:connector-curvature="0"
       style="fill:none;stroke:#000000;stroke-width:3;stroke-linecap:round;stroke-linejoin:round;stroke-miterlimit:10" /><path
       stroke-miterlimit="10"
       d="m 457.5,219.1 c -0.5,-2.3 1.5,-3.4 3.4,-4.6 2.1,-1.2 4.8,-1 6.6,0.6 1.8,1.5 2.5,3.9 2.8,6.3 0.5,3.2 0.6,6.5 -1.2,9.2 -1.9,2.8 -5.9,3.9 -9,2.6"
       id="path3522"
       inkscape:connector-curvature="0"
       style="fill:none;stroke:#000000;stroke-width:3;stroke-linecap:round;stroke-linejoin:round;stroke-miterlimit:10" /><path
       stroke-miterlimit="10"
       d="m 458.4,223.9 c 0.8,-1.7 1.4,-5 3.2,-5.4 1.8,-0.4 3.9,0.5 4.6,2.3 0.3,0.8 0.2,1.6 0.2,2.5 -0.1,1.9 -0.3,3.9 -1.5,5.5 -1.1,1.6 -3.4,2.5 -5,1.4"
       id="path3524"
       inkscape:connector-curvature="0"
       style="fill:none;stroke:#000000;stroke-width:3;stroke-linecap:round;stroke-linejoin:round;stroke-miterlimit:10" /></g><g
     id="g3526"
     transform="translate(-78.215277,-147.89718)"><path
       stroke-miterlimit="10"
       d="m 281.9,252.3 c -2.3,-0.8 -4.7,-1.2 -7.1,-1.1 -1,0 -2.1,0.1 -3,0.6 -1.2,0.6 -2,1.7 -2.6,2.8 -2.1,3.7 -2,8.6 0.1,12.2 0.9,1.5 2.1,2.9 2.8,4.4 0.9,1.9 1,4 1.6,6.1 0.6,2 2,4 4,4.4 2.6,0.4 4.8,-1.9 6,-4.2 2,2.5 5.2,4.5 8.2,3.3 2.9,-1.2 3.7,-4.6 4.4,-7.6 1.1,-4.2 2.5,-8.4 4.3,-12.3 1.2,-2.6 2.6,-5.5 1.5,-8.2 -0.9,-2.2 -3.3,-3.4 -5.5,-4.2 -2.5,-0.9 -5.2,-1.4 -7.8,-1 -2.7,0.4 -5.2,1.8 -6.5,4 m 0.3,1.6 c -0.3,-3.4 -2.8,-6.5 -6,-7.6"
       id="path3528"
       inkscape:connector-curvature="0"
       style="fill:none;stroke:#000000;stroke-width:3;stroke-linecap:round;stroke-linejoin:round;stroke-miterlimit:10" /><path
       stroke-miterlimit="10"
       d="m 281.9,250.3 c 0.2,-2.1 -0.4,-4.1 0.3,-6.1 0.7,-2 2.6,-3.4 4.3,-4.5 -0.3,1.9 0.7,3.8 0.4,5.7 -0.4,2.2 -2.3,3.5 -4,4.8 m -6.5,5.6 c -1.6,0.3 -3.5,-0.5 -4.7,0.6 -0.7,0.6 -0.8,1.6 -0.8,2.5 0.1,1.5 0.6,2.9 1.4,4 m 2.7,-6.3 c -1.9,1.4 -2.8,3.9 -2.3,6.2"
       id="path3530"
       inkscape:connector-curvature="0"
       style="fill:none;stroke:#000000;stroke-width:3;stroke-linecap:round;stroke-linejoin:round;stroke-miterlimit:10" /></g><path
     stroke-miterlimit="10"
     d="m 342.68472,132.70282 c -0.1,-1.4 1.9,-2.3 3.1,-1.5 1.2,0.7 1.6,2.3 1.4,3.6 -0.2,1.6 -1,3.1 -2.3,3.9 -0.9,0.6 -2,0.8 -3,1 -8.1,1.7 -16.2,3.4 -24.2,5.1 -1.4,0.3 -3,0.7 -3.7,1.8 -1.2,1.6 -0.5,3.9 1,5.2 1.5,1.3 3.4,1.8 5.3,2.3 10.2,2.5 20.5,4.8 30.7,7.3 4,1 8.9,1.8 12,-1.1 1,-0.9 1.8,-2.4 1.4,-3.6 -0.3,-1.1 -1.3,-1.9 -2.2,-2.6 -4.2,-3.3 -8.5,-6.4 -12.6,-9.7 -0.8,-0.6 -1.7,-1.3 -2.3,-2.1 -0.7,-0.9 -1.2,-1.8 -1.7,-2.8 -0.2,-0.6 -0.4,-1.2 -0.2,-1.8 0,-0.1 0,-0.1 0.1,-0.2 l 0.1,0 c 0.2,0 0.4,0.1 0.7,0.1 0.2,0 0.5,0 0.6,-0.2 l 0,-0.1 c 0,-0.1 -0.1,-0.1 -0.1,-0.2 -0.2,-0.1 -0.3,-0.2 -0.5,-0.3 -0.2,-0.1 -0.3,-0.3 -0.2,-0.5 0.1,-0.2 0.4,-0.2 0.7,-0.2 0.3,0 0.5,-0.1 0.8,-0.1 0.1,0 0.1,0 0.2,-0.1 0.1,-0.1 0,-0.4 -0.2,-0.5 -0.2,-0.1 -0.4,-0.1 -0.6,-0.2 -0.2,-0.1 -0.3,-0.3 -0.2,-0.5"
     id="path3532"
     inkscape:connector-curvature="0"
     style="fill:none;stroke:#000000;stroke-width:3;stroke-linecap:round;stroke-linejoin:round;stroke-miterlimit:10" /><g
     id="g3534"
     transform="translate(-78.215277,-147.89718)"><path
       stroke-miterlimit="10"
       d="m 494.5,302.5 c 3.8,3.5 7.8,7.1 11.6,10.5 1.9,1.7 3.8,3.7 3.4,6.2 -0.8,-0.2 -1.6,-0.4 -2.5,-0.5 -0.5,-0.1 -1,-0.2 -1.4,-0.4 -0.4,-0.2 -0.8,-0.6 -1.2,-0.9 -4.3,-3.9 -8.7,-8 -13.1,-11.9 -0.6,-0.5 -1.1,-1 -1.3,-1.8 -0.2,-0.9 0.3,-1.9 1.1,-2.3 0.8,-0.4 1.9,-0.1 2.4,0.7"
       id="path3536"
       inkscape:connector-curvature="0"
       style="fill:none;stroke:#000000;stroke-width:3;stroke-linecap:round;stroke-linejoin:round;stroke-miterlimit:10" /><path
       stroke-miterlimit="10"
       d="m 496.3,303.5 c 1,-1.6 2.1,-3.3 1.8,-5 -0.3,-1.8 -1.9,-3.1 -3.4,-3.9 -0.8,-0.4 -1.8,-0.8 -2.7,-0.9 -1.5,-0.1 -3,0.6 -3.9,1.7 -1.1,1 -1.8,2.4 -2.5,3.6 -0.5,1.1 -1,2.3 -0.9,3.5 0.1,1.3 0.8,2.4 1.5,3.4 1,1.4 2.1,2.7 3.6,3.3 1.6,0.6 3.5,0.4 4.4,-1"
       id="path3538"
       inkscape:connector-curvature="0"
       style="fill:none;stroke:#000000;stroke-width:3;stroke-linecap:round;stroke-linejoin:round;stroke-miterlimit:10" /><path
       stroke-miterlimit="10"
       d="m 494.2,294.3 c -1.4,-0.9 -3.1,-1 -4.6,-1 -0.7,0 -1.4,-0.1 -2.1,0.2 -0.5,0.2 -1,0.6 -1.4,1 -2.1,2.1 -3.2,5 -2.8,8 0.4,2.9 2.4,5.5 5.1,6.5"
       id="path3540"
       inkscape:connector-curvature="0"
       style="fill:none;stroke:#000000;stroke-width:3;stroke-linecap:round;stroke-linejoin:round;stroke-miterlimit:10" /><path
       stroke-miterlimit="10"
       d="m 482.1,300.8 c -1.7,-1.9 -3.4,-3.6 -5.4,-5 -0.4,-0.3 -0.8,-0.5 -1,-1 -0.2,-0.5 0,-1 0.3,-1.5 1,-1.9 2.6,-3.4 4.5,-4.3 0.3,-0.1 0.6,-0.3 0.9,-0.3 1.2,-0.2 2.4,0.6 3.4,1.4 1.2,1 2.4,1.9 3.5,2.9"
       id="path3542"
       inkscape:connector-curvature="0"
       style="fill:none;stroke:#000000;stroke-width:3;stroke-linecap:round;stroke-linejoin:round;stroke-miterlimit:10" /><path
       stroke-miterlimit="10"
       d="m 484,289.3 c 0.1,-1.3 0.2,-2.6 0.3,-3.8 0,-0.4 0,-0.7 -0.1,-1 -0.2,-0.4 -0.5,-0.6 -0.9,-0.8 -1.6,-1 -3.4,-2 -5.3,-1.8 -2.3,0.2 -4,2 -5.3,3.8 -1.1,1.6 -2,3.4 -2.2,5.3 -0.2,2 0.5,4 2,5.2 1.5,1.3 3.9,1.4 5.3,0.1"
       id="path3544"
       inkscape:connector-curvature="0"
       style="fill:none;stroke:#000000;stroke-width:3;stroke-linecap:round;stroke-linejoin:round;stroke-miterlimit:10" /></g><g
     id="g3546"
     transform="translate(-78.215277,-147.89718)"><path
       stroke-miterlimit="10"
       d="m 284.5,218.2 c 2.4,-4.1 4.7,-8.4 7.6,-12.2 3.4,-4.5 7.6,-8.7 10,-13.9 2.2,-4.6 2.7,-9.9 4.9,-14.5 -2.3,-3.4 -6.8,-4.2 -10.7,-4.7 -3.3,-0.5 -6.6,-0.9 -9.9,-0.9 -2.4,0 -4.7,0.3 -7.2,0.5 -0.7,0.1 -1.4,0.2 -1.9,0.6 -0.6,0.5 -0.8,1.4 -0.9,2.2 -2.1,15 5.4,29.6 7.5,44.6"
       id="path3548"
       inkscape:connector-curvature="0"
       style="fill:none;stroke:#000000;stroke-width:3;stroke-linecap:round;stroke-linejoin:round;stroke-miterlimit:10" /><path
       stroke-miterlimit="10"
       d="m 306.9,178.1 c 1.5,0.3 3.2,0 4.2,-1.1 1.1,-1.1 1.4,-3 0.4,-4 -0.4,-0.4 -0.8,-0.7 -1.3,-1 -9.9,-5.7 -22.1,-7.3 -32.9,-4 0.9,1.1 1.4,2.6 0.8,3.8 -0.5,1.3 -2.3,2.1 -3.4,1.2 -1,-0.7 -1,-2.3 -0.3,-3.3 0.7,-1 2,-1.4 3.3,-1.3 m 22.2,13.9 c 0.5,0.8 1,1.8 0.7,2.7 -0.2,0.6 -0.7,0.9 -1.3,1.2 -2.1,0.9 -4.6,-0.1 -5.7,-2.1 -0.2,-0.3 -0.3,-0.7 -0.3,-1 0,-0.8 0.7,-1.4 1.4,-1.8 1,-0.6 2.1,-1 3.2,-1 1.1,0 2.3,0.6 2.8,1.6 m -15.2,-2.2 c 0.7,1.1 1.2,2.4 1,3.5 -0.2,1.3 -1,2.5 -2.3,2.8 -0.3,0.1 -0.6,0.1 -0.9,0 -0.2,-0.1 -0.4,-0.2 -0.6,-0.4 -0.6,-0.4 -1.2,-0.9 -1.8,-1.3 -0.4,-0.3 -0.8,-0.6 -1,-1 -0.3,-0.6 -0.1,-1.4 0.4,-2 0.5,-0.5 1.1,-0.9 1.8,-1.2 0.8,-0.3 1.6,-0.6 2.4,-0.6 0.8,0 1.7,0.5 2,1.3 m 4.3,13.3 c -0.1,0.9 -0.8,1.7 -1.7,2.1 -0.9,0.4 -1.8,0.4 -2.7,0.1 -0.6,-0.2 -1.2,-0.5 -1.6,-1 -0.6,-0.8 -0.7,-1.9 -0.3,-2.8 0.4,-0.9 1.2,-1.6 2.1,-2 0.5,-0.2 1.2,-0.3 1.7,-0.1 0.3,0.1 0.5,0.4 0.7,0.6 1,1 2,2.1 2.2,3.4 m -0.6,10.1 c -0.9,0.8 -2,1.4 -3.1,1.8 -0.6,0.2 -1.3,0.4 -1.9,0.1 -0.2,-0.1 -0.4,-0.3 -0.6,-0.5 -0.7,-0.7 -1.3,-1.6 -1.5,-2.6 -0.2,-1 0,-2.1 0.7,-2.8 1.1,-1 2.9,-0.8 4,0.2 1.2,1 1.7,2.5 2,3.8"
       id="path3550"
       inkscape:connector-curvature="0"
       style="fill:none;stroke:#000000;stroke-width:3;stroke-linecap:round;stroke-linejoin:round;stroke-miterlimit:10" /></g><g
     id="g3552"
     transform="translate(-78.215277,-147.89718)"><path
       stroke-miterlimit="10"
       d="m 490.1,351.9 c -1.6,-0.2 -3.2,1.3 -3.3,3 -0.1,1.7 0.8,3.3 2,4.3 1.1,1 2.6,1.7 4,1.8 1.5,0.1 3.1,-0.6 3.8,-1.9 0.7,-1.3 0.8,-2.9 0.7,-4.4 0,-0.4 -0.1,-0.9 -0.3,-1.2 -0.2,-0.3 -0.6,-0.5 -0.9,-0.7 -2,-0.9 -4.1,-1.4 -6.3,-1.4"
       id="path3554"
       inkscape:connector-curvature="0"
       style="fill:none;stroke:#000000;stroke-width:3;stroke-linecap:round;stroke-linejoin:round;stroke-miterlimit:10" /><path
       stroke-miterlimit="10"
       d="m 484.7,348.6 c -1.1,0.8 -1.4,2.6 -0.6,3.6 0.8,1.1 2.5,1.5 3.6,0.9 1.2,-0.6 1.9,-2.2 1.5,-3.5 0,-0.2 -0.1,-0.3 -0.2,-0.4 -0.2,-0.1 -0.4,-0.1 -0.6,-0.1 l -6,0"
       id="path3556"
       inkscape:connector-curvature="0"
       style="fill:none;stroke:#000000;stroke-width:3;stroke-linecap:round;stroke-linejoin:round;stroke-miterlimit:10" /><path
       stroke-miterlimit="10"
       d="m 488.9,351 c 1.9,-1.6 3.4,-3.6 4.3,-5.9 0.2,-0.4 0.4,-0.9 0.7,-1.2 1.1,-1 3,0.1 4.2,-0.7 m -8,8.1 c 1.3,-0.8 2.6,-1.6 3.7,-2.4 1.1,-0.7 2.1,-1.4 3.4,-1.6 1.2,-0.3 2.6,0 3.4,1 m -9.4,2.7 9.4,0 c 1.5,0 3.4,0.2 4.1,1.5 m -17.2,0.2 c -2.6,0.4 -4.7,2.5 -7.3,3 -0.9,0.2 -1.8,0.2 -2.6,0.7 -0.8,0.5 -1.1,1.7 -0.4,2.2 m 8.8,-4.7 c -1.5,1.6 -3,3.2 -4.4,4.7 -0.3,0.3 -0.6,0.6 -0.7,1 -0.2,0.5 -0.1,1 0,1.4 0.1,1.1 0,2.2 -0.4,3.3 m 5.2,-8.5 c -0.3,2.3 -0.7,4.5 -0.5,6.7 0.2,2.3 0.9,4.5 2.5,6.2"
       id="path3558"
       inkscape:connector-curvature="0"
       style="fill:none;stroke:#000000;stroke-width:3;stroke-linecap:round;stroke-linejoin:round;stroke-miterlimit:10" /><path
       stroke-miterlimit="10"
       d="m 488.4,353.1 -13,0 c -0.3,0 -0.6,0 -0.9,0.1 -0.3,0.1 -0.5,0.4 -0.6,0.7 -0.7,1 -1.4,2.1 -2.1,3.1 m 18.3,-7.5 c -0.8,-1.5 -1.4,-3.2 -1.8,-4.8 -0.2,-1.1 -0.2,-2.4 0.7,-3 0.8,-0.4 2,-0.3 2.2,-1.2 m -2.4,12.8 c -0.3,0.6 -0.4,1.2 -0.4,1.9 0.4,-0.7 0.8,-1.4 1.2,-2 -0.5,0.9 -0.8,1.9 -0.9,3 0.6,-1.2 1.2,-2.5 1.8,-3.6 0.2,1.7 0,3.4 -0.4,4.9 0.5,-1.6 1,-3.1 1.8,-4.4 0,1.8 -0.2,3.6 -0.4,5.4 0.4,-1.7 0.9,-3.4 1.3,-5 0.2,2 0.1,4 -0.2,6 0.8,-1.9 1.6,-3.6 2.4,-5.5 l 0,4.7 c 0.2,-1.2 0.6,-2.4 1.1,-3.5 0,1.1 0,2.2 -0.2,3.3 0,-0.7 0.1,-1.4 -0.1,-2.1 -0.2,-0.7 -0.5,-1.4 -1.1,-1.8 -0.9,-0.6 -2.2,-0.4 -3.2,0.2 -0.9,0.6 -1.6,1.6 -2.2,2.5 -0.1,-1.3 -0.1,-2.7 0.1,-3.9 -0.3,1.6 0.3,3.4 1.5,4.4 m -6.3,-7.9 c -0.2,0.5 -0.3,1 -0.2,1.5 0.3,-0.4 0.6,-0.8 0.7,-1.3 l 0,1.7 c 0.2,-0.6 0.4,-1.2 0.5,-1.9 l 0,1.6 c 0.4,-0.5 0.6,-1.2 0.7,-1.8 0.1,0.7 0.3,1.4 0.5,2.1 0.4,-0.3 0.6,-0.8 0.7,-1.3 l 0,1"
       id="path3560"
       inkscape:connector-curvature="0"
       style="fill:none;stroke:#000000;stroke-width:3;stroke-linecap:round;stroke-linejoin:round;stroke-miterlimit:10" /><path
       stroke-miterlimit="10"
       d="m 488.6,352.6 c -0.1,1.3 -0.2,2.6 -0.3,3.8 0.6,-0.8 1,-1.7 1.2,-2.7 -0.2,1.2 0.1,2.4 0.5,3.5 0.2,0.6 0.4,1.3 0.9,1.8 0.6,0.5 1.4,0.7 2.2,0.6 0.8,-0.2 1.5,-0.6 2,-1.2 0.1,0.2 0.1,0.4 0,0.6 0.8,-1.9 1.4,-3.8 1.7,-5.8 -0.4,0.6 -0.7,1.2 -1.1,1.9 0,-1.3 -0.1,-2.6 -0.4,-3.8 -0.9,0.8 -1.7,1.7 -2.2,2.8 -0.3,-0.7 -0.7,-1.4 -1,-2.1 -0.4,0 -0.5,0.5 -0.6,0.8 -0.1,0.3 -0.4,0.8 -0.7,0.6"
       id="path3562"
       inkscape:connector-curvature="0"
       style="fill:none;stroke:#000000;stroke-width:3;stroke-linecap:round;stroke-linejoin:round;stroke-miterlimit:10" /><path
       stroke-miterlimit="10"
       d="m 485,349.9 c 1.3,0.2 2.6,0.2 3.8,0 -0.2,1.2 -0.2,2.4 -0.1,3.5 0.1,1.9 0.7,3.7 1.4,5.5 -0.7,-0.7 -1.4,-1.3 -2.1,-2 0.5,1.3 2.2,1.9 3.3,1.2 1.1,-0.7 1.5,-2.1 1.7,-3.3 0,1.8 0.3,3.4 0.8,5.1 0.4,-2.1 0.7,-4.1 1.1,-6.3 0.1,1.2 0.3,2.4 0.4,3.6 0.1,-1.2 0.1,-2.4 0.2,-3.6 0.4,0.6 0.7,1.4 0.7,2.1 -1,0.1 -2,-0.1 -3,-0.5 0.2,-0.3 0.4,-0.7 0.6,-1 -1.6,1.4 -3.1,2.7 -4.6,4 -0.2,-0.9 -0.1,-1.9 0.4,-2.7"
       id="path3564"
       inkscape:connector-curvature="0"
       style="fill:none;stroke:#000000;stroke-width:3;stroke-linecap:round;stroke-linejoin:round;stroke-miterlimit:10" /></g><g
     id="g3566"
     transform="translate(-78.215277,-147.89718)"><path
       stroke-miterlimit="10"
       d="m 145.8,258.2 c 6,-0.4 12,0.5 17.6,2.5 2.4,0.8 4.6,1.9 6.3,3.6 2.8,2.9 3.4,7.1 3.4,11.1 0,1.9 -0.2,3.8 -1,5.6 -1.9,4.2 -6.6,6.2 -11.1,7.2 -6.3,1.4 -13.5,1.1 -18.7,-2.7 -4.6,-3.4 -7.2,-9.5 -6.4,-15.1 0.8,-5.7 5,-10.7 10.4,-12.6"
       id="path3568"
       inkscape:connector-curvature="0"
       style="fill:none;stroke:#000000;stroke-width:3;stroke-linecap:round;stroke-linejoin:round;stroke-miterlimit:10" /><path
       stroke-miterlimit="10"
       d="m 159.9,260.5 c -0.5,4.2 -1,8.5 -1.3,12.7 -0.1,1.4 -0.1,3 0.9,3.9 0.6,0.6 1.5,0.8 2.4,1 2.8,0.6 5.7,0.7 8.5,0.4 m -25.8,-6 c -3.4,-0.6 -6.7,-2.1 -10,-3.4 -10.2,-3.9 -21.3,-5.7 -32.2,-5.2 m 48.1,-3.1 c 0.3,-9.7 0.1,-19.4 -0.6,-29.1 m -35.1,-15.3 c -2.3,0.1 -4.1,1.5 -5.9,2.8 -2,1.5 -4.1,3.1 -5.3,5.2 -1.5,2.7 -1.5,5.9 -1.4,9 0,1.4 0.1,2.9 0.9,3.9 1.1,1.6 3.3,1.9 5.1,2.1"
       id="path3570"
       inkscape:connector-curvature="0"
       style="fill:none;stroke:#000000;stroke-width:3;stroke-linecap:round;stroke-linejoin:round;stroke-miterlimit:10" /><path
       stroke-miterlimit="10"
       d="m 159.3,227.8 c 1.5,0.7 2.9,1.6 4,2.8 2.9,2.9 1.2,7.8 -2.9,8.1 -15.3,1.4 -30.9,-0.3 -45.5,-5 -0.6,-0.2 -1.1,-0.6 -1.4,-1.1 -0.5,-1 0.2,-1.8 0.8,-2.4 11.5,-11.1 28.6,-16.1 44.3,-12.9 m 5,74.2 c 0.7,4.4 1.8,8.9 3.4,13.1 m -24.1,-15.3 c -0.9,1.4 -1.9,2.8 -3,3.9 m -10.2,-0.3 c 2.7,0.8 4.9,2.6 7.4,3.8 3.3,1.8 7,3 10.6,3.4 m 21.6,8 c 9.1,-0.4 18.1,-1.7 26.9,-3.8 m -35.9,0.5 c 7,0.6 14,-0.2 20.7,-2.4"
       id="path3572"
       inkscape:connector-curvature="0"
       style="fill:none;stroke:#000000;stroke-width:3;stroke-linecap:round;stroke-linejoin:round;stroke-miterlimit:10" /><path
       stroke-miterlimit="10"
       d="m 141.9,232.9 c -3.1,-0.7 -6,-2 -8.7,-3.7 -1,-0.6 -2,-1.6 -1.8,-2.7 0.2,-1.3 1.8,-1.8 3.2,-1.9 4,-0.4 8.1,-0.5 12.2,-0.3 m -44.4,32.2 c 3,-1 6.6,0.1 8.5,2.7 2.1,2.8 1.9,6.9 -0.3,9.6 -2.2,2.7 -6.2,3.5 -9.4,2.3 -2.2,-0.9 -3.9,-2.9 -4.6,-5 -0.3,-0.9 -0.4,-1.9 -0.1,-2.9 0.2,-0.6 0.6,-1.2 1.1,-1.7 1.5,-1.8 3.3,-3.4 5.2,-4.6 m 6,1.3 c -2.9,3.1 -5.5,6.2 -8,9.6 m 0.3,-9.3 6.9,10.2 m 3.9,-6.4 c -3.8,2.4 -8.5,3.4 -13,3 m 0,-4 c 2.8,2.1 5.7,3.9 8.8,5.6"
       id="path3574"
       inkscape:connector-curvature="0"
       style="fill:none;stroke:#000000;stroke-width:3;stroke-linecap:round;stroke-linejoin:round;stroke-miterlimit:10" /></g><g
     id="g3576"
     transform="translate(-78.215277,-147.89718)"><path
       stroke-miterlimit="10"
       d="m 232.1,226.5 c -1.4,-2.1 -4.3,-2.6 -6.8,-2.3 -2.5,0.3 -5,0.9 -7.5,0.3 -3.1,-0.8 -5.3,-3.6 -5.7,-6.8 -0.5,-3.1 0.7,-6.3 2.8,-8.7 1.3,-1.6 3.1,-2.9 5.1,-3.2 1.9,-0.3 3.7,0.4 5.4,1.3 2.1,1.2 3.7,2.9 5,4.8 1.5,2.3 2.3,5 4.1,7 0.6,0.7 1.3,1.2 1.7,2 0.6,1.3 0.3,2.9 -0.5,4 -0.8,1.2 -2,2.1 -3.2,2.9"
       id="path3578"
       inkscape:connector-curvature="0"
       style="fill:none;stroke:#000000;stroke-width:3;stroke-linecap:round;stroke-linejoin:round;stroke-miterlimit:10" /><path
       stroke-miterlimit="10"
       d="m 234.1,225.4 -2.1,-1.5 c -0.5,-0.4 -1.1,-0.8 -1.4,-1.3 -0.3,-0.5 -0.3,-1.3 0.2,-1.8 0.1,-0.1 0.2,-0.1 0.3,-0.1 0.1,0 0.2,0.1 0.2,0.1 0.2,0.1 0.4,0.2 0.5,0.4 0.1,0.2 0,0.5 -0.2,0.6 -0.1,0 -0.3,0 -0.4,-0.1 -0.5,-0.3 -0.9,-0.7 -1.1,-1.3 -0.1,-0.3 -0.1,-0.6 0,-0.8 0.2,-0.2 0.5,-0.3 0.8,-0.2 0.3,0.1 0.5,0.3 0.8,0.5 1.1,0.9 2.2,1.9 3.3,2.8"
       id="path3580"
       inkscape:connector-curvature="0"
       style="fill:none;stroke:#000000;stroke-width:3;stroke-linecap:round;stroke-linejoin:round;stroke-miterlimit:10" /><path
       stroke-miterlimit="10"
       d="m 232.8,227.3 c 0.7,1.3 1.7,2.5 2.8,3.4 0.3,0.2 0.5,0.5 0.9,0.5 0.5,0.1 1.1,-0.2 1.5,-0.5 0.8,-0.7 1.6,-1.5 2.1,-2.4 0.2,-0.3 0.3,-0.6 0.3,-0.9 0.1,-0.5 -0.1,-1.1 -0.4,-1.6 -0.9,-1.9 -2.4,-3.5 -4,-4.8 m -0.8,8.8 c 1.4,-1.1 2.7,-2.4 3.5,-3.9 m -4,2.9 c 1,-1.5 1.9,-3.1 2.7,-4.6 m 0.7,7.1 c 0.6,0.1 1.3,0.1 1.8,-0.2 0.3,-0.1 0.7,-0.4 0.8,-0.7 0.3,-0.7 -0.1,-1.4 -0.5,-2"
       id="path3582"
       inkscape:connector-curvature="0"
       style="fill:none;stroke:#000000;stroke-width:3;stroke-linecap:round;stroke-linejoin:round;stroke-miterlimit:10" /></g><g
     id="g3584"
     transform="translate(-78.215277,-147.89718)"><path
       stroke-miterlimit="10"
       d="m 119.9,378.7 c -4.4,0.6 -9.1,-0.8 -13.3,0.7 -4.7,1.8 -7.5,6.8 -8.9,11.6 -1.1,4.1 -1.5,8.5 -1.2,12.8 0.1,1.2 0.3,2.6 1.2,3.4 0.5,0.5 1.2,0.8 2,1 4.4,1.4 9.5,1 13.6,-1.3 4.1,-2.3 7.3,-6.1 8.6,-10.6 0.5,-1.6 0.7,-3.4 0.3,-5 -0.4,-1.6 -1.3,-3.1 -2.2,-4.4 -1.4,-2.2 -2.9,-4.3 -4.2,-6.5 m -6,10.2 c -0.6,-9.5 -0.3,-18.9 0.9,-28.4 m 0.3,5.5 c 5.7,1 9.9,5.8 14,9.9 7.9,7.8 17.1,13.8 26.4,19.8"
       id="path3586"
       inkscape:connector-curvature="0"
       style="fill:none;stroke:#000000;stroke-width:3;stroke-linecap:round;stroke-linejoin:round;stroke-miterlimit:10" /><path
       stroke-miterlimit="10"
       d="m 110.1,363.9 c 12.4,0.2 24.8,0.1 37.3,-0.3 l -0.6,38.4"
       id="path3588"
       inkscape:connector-curvature="0"
       style="fill:none;stroke:#000000;stroke-width:3;stroke-linecap:round;stroke-linejoin:round;stroke-miterlimit:10" /><path
       stroke-miterlimit="10"
       d="m 146.1,365.9 c 2.6,0.3 4.9,1.8 7,3.4 5.4,3.9 10.4,8.4 14.9,13.3 M 150.7,396 c 8.1,1.3 15.8,-3.4 23.9,-4.2"
       id="path3590"
       inkscape:connector-curvature="0"
       style="fill:none;stroke:#000000;stroke-width:3;stroke-linecap:round;stroke-linejoin:round;stroke-miterlimit:10" /><path
       stroke-miterlimit="10"
       d="m 175.7,367.4 c -3.6,-0.8 -7.6,1.1 -10.1,3.9 -2.5,2.8 -3.7,6.6 -4.4,10.2 -1.3,6.1 -1.4,12.6 1.4,18.2 2.8,5.5 9,9.8 15.1,8.7 5.3,-0.9 9.4,-5.4 11.2,-10.4 1.9,-5 1.8,-10.5 1.5,-15.9 -0.2,-3.1 -0.4,-6.1 -1.4,-8.9 -2.2,-6 -9.1,-10.6 -15.2,-8.6 m -32.3,0 0,-12.8 m -7.4,0.5 13.8,0 m -39.5,10.8 c 0.2,-2.9 0.2,-5.7 -0.7,-8.4 -0.8,-2.7 -2.7,-5.2 -5.2,-6.4 -2.8,-1.2 -6.1,-0.7 -8.5,1.1 -2.4,1.8 -3.8,4.6 -4.2,7.6 -0.2,1.4 0,3.1 1,4 1.3,1.2 3.3,0.9 4.9,0.6"
       id="path3592"
       inkscape:connector-curvature="0"
       style="fill:none;stroke:#000000;stroke-width:3;stroke-linecap:round;stroke-linejoin:round;stroke-miterlimit:10" /><path
       stroke-miterlimit="10"
       d="m 168,384.3 c 1.6,-0.4 3.1,0.8 4,2.2 0.9,1.3 1.6,2.9 2.8,3.9 M 142.4,403 c 1.7,-0.2 3.4,0.1 4.9,0.8"
       id="path3594"
       inkscape:connector-curvature="0"
       style="fill:none;stroke:#000000;stroke-width:3;stroke-linecap:round;stroke-linejoin:round;stroke-miterlimit:10" /></g><g
     id="g3596"
     transform="translate(-78.215277,-147.89718)"><path
       stroke-miterlimit="10"
       d="m 435,343.5 c -3.4,-1.2 -7.4,0.2 -10.1,2.7 -2.7,2.5 -4.3,5.9 -5.6,9.3 -1.3,3.2 -2.4,6.6 -1.9,10 0.5,3.8 2.9,7.3 6,9.5 3.2,2.3 7,3.4 10.7,3.6 2,0.2 4,0.1 5.9,-0.4 1.7,-0.5 3.3,-1.4 4.6,-2.6 5.6,-4.4 8.3,-12.3 6.3,-19.2 -2,-6.9 -8.8,-12.1 -15.9,-12"
       id="path3598"
       inkscape:connector-curvature="0"
       style="fill:none;stroke:#000000;stroke-width:3;stroke-linecap:round;stroke-linejoin:round;stroke-miterlimit:10" /><path
       stroke-miterlimit="10"
       d="m 420.5,354.6 c 4,3.1 6.7,8.1 6.2,13.1 -0.3,2.6 -1.4,5 -2.4,7.4 m 13.9,-29.4 c 0,1.1 0.1,2.2 0.3,3.3 0.3,1.3 0.7,2.5 1.1,3.7 0.9,2.7 2,5.4 3.5,7.8 1.5,2.4 3.9,4.3 6.7,5 -0.3,-0.1 -0.6,-0.2 -0.8,-0.3"
       id="path3600"
       inkscape:connector-curvature="0"
       style="fill:none;stroke:#000000;stroke-width:3;stroke-linecap:round;stroke-linejoin:round;stroke-miterlimit:10" /><path
       stroke-miterlimit="10"
       d="m 417.6,364.7 c 1.6,-0.1 3.2,-0.2 4.8,-0.2 1.5,-0.1 2.9,-0.1 4.3,-0.4 1.6,-0.3 3.2,-0.8 4.7,-1.2 3.3,-1 6.6,-2.1 9.6,-3.7 3,-1.7 5.6,-4.2 6.9,-7.4"
       id="path3602"
       inkscape:connector-curvature="0"
       style="fill:none;stroke:#000000;stroke-width:3;stroke-linecap:round;stroke-linejoin:round;stroke-miterlimit:10" /><path
       stroke-miterlimit="10"
       d="m 426.9,343.1 c 0.1,2.9 1.9,5.3 3.4,7.8 5,8 7.4,17.5 6.8,27 0,0.2 -0.1,0.4 -0.2,0.4 -0.2,0 -0.2,-0.3 -0.1,-0.3"
       id="path3604"
       inkscape:connector-curvature="0"
       style="fill:none;stroke:#000000;stroke-width:3;stroke-linecap:round;stroke-linejoin:round;stroke-miterlimit:10" /></g><path
     d="m 242.98472,203.50282 c 4.8,-8.1 9,-12.9 14.4,-20.2 1.1,-1.5 6.1,-3.4 8,-3.4 2.1,0 3.9,1.5 5.2,3.2 3.4,4.4 6.6,11.6 5.4,17.1 -1.2,5.5 -6.6,9.5 -10.8,13.2 3.4,-3.3 6.7,-6.4 10.2,-9.7 0.8,-0.8 1.6,-1.5 2.7,-1.8 2.3,-0.7 4.4,1.2 5.8,3.1 11.5,15.2 4.3,23.7 -4.9,30.2 2.9,-2.6 5.6,-5.1 8.5,-7.6 0.6,-0.6 1.3,-1.1 2.1,-1.3 1.1,-0.2 2.2,0.3 3.2,1 8.5,5.8 10.2,19.4 3.5,27.3 -2.6,3 -5.9,5 -9.2,7.1 -8.3,5.1 -16.4,10.5 -23.6,17.1 -13.8,12.7 -16.9,15.9 -33.7,24.1 0,0 -2.3,-0.3 -6,-0.7 -5,-0.7 -10,-0.7 -14.9,-1.7 -23.7,-8.9 -47.3,-23.7 -73.9,-14.8 10.8,-12.8 30.6,-21.7 30.7,-40.9 1.1,-3.1 2.1,-6.1 2.7,-8.7 0.6,-2.6 1,-4.7 0.8,-6 -1.5,-10.4 -10.9,-37.5 -10.9,-41.7 0,-4.3 -1.5,-6.9 -2.4,-11.1 -1,-4.8 0.6,-6.6 0,-11.9 -0.5,-4.9 -1.8,-17.6 0.4,-22 6,-2.4 14.2,0 18.7,4.6 5.6,5.7 6.4,14.2 8.8,21.9 1.3,4.2 2.1,8.7 3.4,13 3,10.2 5.2,11 12.8,18.5 2.4,-0.3 7.4,-3.7 8.8,-5.7 23.4,-33.8 51.8,-60.6 72.8,-95.899982 0.2,-0.3 0.3,-0.5 0.6,-0.8 8.4,-11.2 26.1,-2.4 22.4,11.100002 -0.3,1 -0.6,2 -0.9,2.8 -2.8,7.79998 -7.5,14.69998 -12.1,21.59998 -10.8,16.2 -37.9,53.3 -48.8,69.5 l 0.2,-0.5 0,0 z"
     id="path3606"
     inkscape:connector-curvature="0"
     style="fill:#ffd139" /><path
     stroke-miterlimit="10"
     d="m 126.38472,288.30282 21.9,-21.9 c 3.1,-3.1 6.1,-6.2 7.7,-10.2 1.9,-4.8 9.8,-24.1 9.1,-29.3 -1.5,-10.4 -10.9,-37.5 -10.9,-41.7 0,-4.3 -1.5,-6.9 -2.4,-11.1 -1,-4.8 0.6,-6.6 0,-11.9 -0.5,-4.9 -1.8,-17.6 0.4,-22 6,-2.4 14.2,0 18.7,4.6 5.6,5.7 6.4,14.2 8.8,21.9 1.3,4.2 2.1,8.7 3.4,13 3,10.2 5.2,11 12.8,18.5 2.4,-0.3 7.4,-3.7 8.8,-5.7 23.4,-33.8 51.8,-60.6 72.8,-95.899982 0.2,-0.3 0.3,-0.5 0.6,-0.8 8.4,-11.2 26.1,-2.4 22.4,11.100002 -0.3,1 -0.6,2 -0.9,2.8 -2.8,7.79998 -7.5,14.69998 -12.1,21.59998 -10.8,16.2 -37.9,53.3 -48.8,69.5"
     id="path3608"
     inkscape:connector-curvature="0"
     style="fill:none;stroke:#000000;stroke-width:3;stroke-linecap:round;stroke-linejoin:round;stroke-miterlimit:10" /><path
     stroke-miterlimit="10"
     d="m 239.08472,200.60282 c 4.8,-8.1 9,-12.9 14.4,-20.2 1.1,-1.5 6.1,-3.4 8,-3.4 2.1,0 3.9,1.5 5.2,3.2 3.4,4.4 6.6,11.6 5.4,17.1 -1.2,5.5 -6.6,9.5 -10.8,13.2 3.4,-3.3 6.7,-6.4 10.2,-9.7 0.8,-0.8 1.6,-1.5 2.7,-1.8 2.3,-0.7 4.4,1.2 5.8,3.1 11.5,15.2 4.3,23.7 -4.9,30.2 2.9,-2.6 5.6,-5.1 8.5,-7.6 0.6,-0.6 1.3,-1.1 2.1,-1.3 1.1,-0.2 2.2,0.3 3.2,1 8.5,5.8 10.2,19.4 3.5,27.3 -2.6,3 -5.9,5 -9.2,7.1 -8.3,5.1 -16.4,10.5 -23.6,17.1 -13.8,12.7 -16.9,15.9 -33.7,24.1"
     id="path3610"
     inkscape:connector-curvature="0"
     style="fill:none;stroke:#000000;stroke-width:3;stroke-linecap:round;stroke-linejoin:round;stroke-miterlimit:10" /><path
     stroke-miterlimit="10"
     d="m 288.18472,75.902838 c -2.3,-2.2 -3.4,-6.3 -3.4,-10.2 0,-3.9 0.7,-7.5 1.3,-11.2 0.3,-1.7 0.5,-3.5 -0.1,-5 -0.3,-0.8 -0.9,-1.4 -1.3,-2.2 -1.2,-2 -1.7,-4.6 -1.9,-7.2 -0.4,-4.3 -0.4,-8.8 0.2,-13"
     id="path3612"
     inkscape:connector-curvature="0"
     style="fill:none;stroke:#000000;stroke-width:3.59599996;stroke-linecap:round;stroke-linejoin:round;stroke-miterlimit:10" /><path
     stroke-miterlimit="10"
     d="m 154.38472,181.10282 4.6,-1.7 m -6.4,-5.1 c 1.1,0.2 2.3,0.5 3.4,0.7 m -0.9,11.8 c -0.1,-1.2 0.6,-2.5 1.7,-3.1 m -4.5,-43.7 c 0.9,2.2 1.8,4.2 2.7,6.4 1.4,3.4 2.9,6.9 2.8,10.5 -0.1,3.6 -1.8,7.6 -5.2,9 m 125.1,-60.59998 c 1.5,-4.3 4.7,-8.000002 8.9,-10.100002 1.2,-0.6 2.6,-1.1 3.8,-0.7 1.7,0.5 2.7,2.3 3.4,3.8 0.9,2.000002 1.7,4.100002 1.8,6.300002 0.1,2.6 -0.9,5.1 -2.2,7.4 -1.4,2.6 -3.5,5.19998 -6.5,5.09998 -2.5,-0.1 -4.4,-2.19998 -5.8,-4.29998 -1,-1.6 -1.9,-3.2 -2.6,-4.8 -0.7,-1.5 -1.2,-3.4 -0.3,-4.7 m -25.4,46.29998 c 1.9,3.2 4.4,6 7.5,8.1 m -5.5,-11.4 c 1.9,3.2 4.6,5.8 7.9,7.7 m -3.6,-8.1 c 1.5,2.4 4.3,3.4 5.9,5.7 m -10.4,-9.5 c 2.8,-0.1 5.5,0.9 7.7,2.5 m -34.8,36.6 c 1.7,3.2 4.1,5.8 7.2,7.7"
     id="path3614"
     inkscape:connector-curvature="0"
     style="fill:none;stroke:#000000;stroke-width:3;stroke-linecap:round;stroke-linejoin:round;stroke-miterlimit:10" /><path
     stroke-miterlimit="10"
     d="m 298.58472,84.402838 c -2,-1.3 -2.3,-5 -2.3,-8 0.1,-5 0.3,-10.1 0.7,-15 0.2,-2.2 0.4,-4.4 0,-6.7 m -17,30.6 c 0,-2.2 -0.8,-4.1 -1.5,-6.1 -1.7,-5.2 -1.9,-11 -2.1,-16.8"
     id="path3616"
     inkscape:connector-curvature="0"
     style="fill:none;stroke:#000000;stroke-width:3.59599996;stroke-linecap:round;stroke-linejoin:round;stroke-miterlimit:10" /></svg>